<?xml version="1.0" encoding="utf-8"?>
<svg viewBox="0 0 300 450" width="300" height="450" xmlns="http://www.w3.org/2000/svg">
  <path d="M 196.479 263.116 L 103.145 263.116 C 95.812 263.116 89.812 257.116 89.812 249.783 L 89.812 156.449 C 89.812 149.116 95.812 143.116 103.145 143.116 L 196.479 143.116 C 203.812 143.116 209.812 149.116 209.812 156.449 L 209.812 249.783 C 209.812 257.116 203.812 263.116 196.479 263.116 Z M 103.145 243.115 L 196.479 243.115 L 166.479 203.116 L 143.146 233.183 L 126.478 213.115 Z M 49.444 299.384 C 48.004 299.384 46.714 299.151 45.574 298.684 C 44.441 298.217 43.531 297.524 42.844 296.604 C 42.164 295.691 41.807 294.591 41.774 293.304 L 46.864 293.304 C 46.937 294.031 47.191 294.587 47.624 294.974 C 48.051 295.354 48.611 295.544 49.304 295.544 C 50.011 295.544 50.571 295.381 50.984 295.054 C 51.391 294.727 51.594 294.274 51.594 293.694 C 51.594 293.207 51.431 292.807 51.104 292.494 C 50.777 292.174 50.377 291.911 49.904 291.704 C 49.431 291.504 48.754 291.271 47.874 291.004 C 46.607 290.617 45.571 290.227 44.764 289.834 C 43.964 289.441 43.274 288.861 42.694 288.094 C 42.114 287.327 41.824 286.331 41.824 285.104 C 41.824 283.271 42.487 281.837 43.814 280.804 C 45.141 279.764 46.867 279.244 48.994 279.244 C 51.161 279.244 52.907 279.764 54.234 280.804 C 55.554 281.837 56.261 283.277 56.354 285.124 L 51.174 285.124 C 51.141 284.491 50.907 283.994 50.474 283.634 C 50.047 283.267 49.497 283.084 48.824 283.084 C 48.244 283.084 47.777 283.237 47.424 283.544 C 47.071 283.851 46.894 284.294 46.894 284.874 C 46.894 285.507 47.194 286.004 47.794 286.364 C 48.387 286.717 49.321 287.097 50.594 287.504 C 51.861 287.937 52.891 288.351 53.684 288.744 C 54.477 289.131 55.164 289.697 55.744 290.444 C 56.324 291.191 56.614 292.154 56.614 293.334 C 56.614 294.454 56.327 295.471 55.754 296.384 C 55.187 297.297 54.361 298.024 53.274 298.564 C 52.194 299.111 50.917 299.384 49.444 299.384 Z M 66.659 299.404 C 65.125 299.404 63.749 299.077 62.529 298.424 C 61.302 297.771 60.339 296.837 59.639 295.624 C 58.939 294.411 58.589 292.994 58.589 291.374 C 58.589 289.767 58.945 288.354 59.659 287.134 C 60.365 285.907 61.335 284.967 62.569 284.314 C 63.802 283.661 65.182 283.334 66.709 283.334 C 68.242 283.334 69.625 283.661 70.859 284.314 C 72.092 284.967 73.062 285.907 73.769 287.134 C 74.475 288.354 74.829 289.767 74.829 291.374 C 74.829 292.981 74.472 294.394 73.759 295.614 C 73.039 296.834 72.059 297.771 70.819 298.424 C 69.572 299.077 68.185 299.404 66.659 299.404 Z M 66.659 295.264 C 67.572 295.264 68.352 294.927 68.999 294.254 C 69.639 293.581 69.959 292.621 69.959 291.374 C 69.959 290.121 69.645 289.157 69.019 288.484 C 68.399 287.817 67.629 287.484 66.709 287.484 C 65.775 287.484 65.002 287.814 64.389 288.474 C 63.775 289.134 63.469 290.101 63.469 291.374 C 63.469 292.621 63.772 293.581 64.379 294.254 C 64.985 294.927 65.745 295.264 66.659 295.264 Z M 82.159 286.164 C 82.719 285.304 83.419 284.627 84.259 284.134 C 85.099 283.641 86.032 283.394 87.059 283.394 L 87.059 288.464 L 85.749 288.464 C 84.556 288.464 83.659 288.721 83.059 289.234 C 82.459 289.747 82.159 290.647 82.159 291.934 L 82.159 299.184 L 77.379 299.184 L 77.379 283.564 L 82.159 283.564 Z M 94.139 286.164 C 94.699 285.304 95.399 284.627 96.239 284.134 C 97.079 283.641 98.012 283.394 99.039 283.394 L 99.039 288.464 L 97.729 288.464 C 96.536 288.464 95.639 288.721 95.039 289.234 C 94.439 289.747 94.139 290.647 94.139 291.934 L 94.139 299.184 L 89.359 299.184 L 89.359 283.564 L 94.139 283.564 Z M 112.119 283.564 L 117.299 283.564 L 107.499 306.604 L 102.339 306.604 L 105.929 298.654 L 99.569 283.564 L 104.919 283.564 L 108.529 293.334 Z M 134.484 283.394 C 136.311 283.394 137.771 283.987 138.864 285.174 C 139.957 286.354 140.504 287.981 140.504 290.054 L 140.504 299.184 L 135.744 299.184 L 135.744 290.704 C 135.744 289.657 135.471 288.844 134.924 288.264 C 134.384 287.684 133.657 287.394 132.744 287.394 C 131.831 287.394 131.104 287.684 130.564 288.264 C 130.017 288.844 129.744 289.657 129.744 290.704 L 129.744 299.184 L 124.964 299.184 L 124.964 283.564 L 129.744 283.564 L 129.744 285.634 C 130.231 284.941 130.884 284.394 131.704 283.994 C 132.531 283.594 133.457 283.394 134.484 283.394 Z M 150.94 299.404 C 149.407 299.404 148.03 299.077 146.81 298.424 C 145.583 297.771 144.62 296.837 143.92 295.624 C 143.22 294.411 142.87 292.994 142.87 291.374 C 142.87 289.767 143.227 288.354 143.94 287.134 C 144.647 285.907 145.617 284.967 146.85 284.314 C 148.083 283.661 149.463 283.334 150.99 283.334 C 152.523 283.334 153.907 283.661 155.14 284.314 C 156.373 284.967 157.343 285.907 158.05 287.134 C 158.757 288.354 159.11 289.767 159.11 291.374 C 159.11 292.981 158.753 294.394 158.04 295.614 C 157.32 296.834 156.34 297.771 155.1 298.424 C 153.853 299.077 152.467 299.404 150.94 299.404 Z M 150.94 295.264 C 151.853 295.264 152.633 294.927 153.28 294.254 C 153.92 293.581 154.24 292.621 154.24 291.374 C 154.24 290.121 153.927 289.157 153.3 288.484 C 152.68 287.817 151.91 287.484 150.99 287.484 C 150.057 287.484 149.283 287.814 148.67 288.474 C 148.057 289.134 147.75 290.101 147.75 291.374 C 147.75 292.621 148.053 293.581 148.66 294.254 C 149.267 294.927 150.027 295.264 150.94 295.264 Z M 167.594 279.524 L 172.374 279.524 L 172.374 299.184 L 167.594 299.184 Z M 195.782 283.394 C 197.722 283.394 199.268 283.981 200.422 285.154 C 201.568 286.334 202.142 287.967 202.142 290.054 L 202.142 299.184 L 197.382 299.184 L 197.382 290.704 C 197.382 289.691 197.115 288.911 196.582 288.364 C 196.048 287.811 195.315 287.534 194.382 287.534 C 193.448 287.534 192.715 287.811 192.182 288.364 C 191.655 288.911 191.392 289.691 191.392 290.704 L 191.392 299.184 L 186.632 299.184 L 186.632 290.704 C 186.632 289.691 186.365 288.911 185.832 288.364 C 185.298 287.811 184.565 287.534 183.632 287.534 C 182.698 287.534 181.965 287.811 181.432 288.364 C 180.898 288.911 180.632 289.691 180.632 290.704 L 180.632 299.184 L 175.852 299.184 L 175.852 283.564 L 180.632 283.564 L 180.632 285.524 C 181.118 284.871 181.755 284.351 182.542 283.964 C 183.322 283.584 184.208 283.394 185.202 283.394 C 186.375 283.394 187.425 283.644 188.352 284.144 C 189.272 284.651 189.995 285.371 190.522 286.304 C 191.062 285.444 191.798 284.744 192.732 284.204 C 193.665 283.664 194.682 283.394 195.782 283.394 Z M 204.534 291.344 C 204.534 289.737 204.838 288.327 205.444 287.114 C 206.051 285.901 206.878 284.967 207.924 284.314 C 208.971 283.661 210.138 283.334 211.424 283.334 C 212.524 283.334 213.491 283.557 214.324 284.004 C 215.158 284.457 215.798 285.047 216.244 285.774 L 216.244 283.564 L 221.034 283.564 L 221.034 299.184 L 216.244 299.184 L 216.244 296.974 C 215.778 297.701 215.128 298.287 214.294 298.734 C 213.468 299.181 212.501 299.404 211.394 299.404 C 210.128 299.404 208.971 299.074 207.924 298.414 C 206.878 297.754 206.051 296.811 205.444 295.584 C 204.838 294.364 204.534 292.951 204.534 291.344 Z M 216.244 291.374 C 216.244 290.181 215.911 289.237 215.244 288.544 C 214.584 287.851 213.778 287.504 212.824 287.504 C 211.871 287.504 211.064 287.847 210.404 288.534 C 209.744 289.214 209.414 290.151 209.414 291.344 C 209.414 292.537 209.744 293.484 210.404 294.184 C 211.064 294.884 211.871 295.234 212.824 295.234 C 213.778 295.234 214.584 294.891 215.244 294.204 C 215.911 293.511 216.244 292.567 216.244 291.374 Z M 230.43 283.334 C 231.53 283.334 232.497 283.557 233.33 284.004 C 234.164 284.457 234.804 285.047 235.25 285.774 L 235.25 283.564 L 240.04 283.564 L 240.04 299.154 C 240.04 300.594 239.754 301.897 239.18 303.064 C 238.614 304.231 237.747 305.157 236.58 305.844 C 235.414 306.537 233.96 306.884 232.22 306.884 C 229.907 306.884 228.034 306.337 226.6 305.244 C 225.16 304.151 224.337 302.671 224.13 300.804 L 228.86 300.804 C 229.014 301.404 229.37 301.877 229.93 302.224 C 230.49 302.571 231.18 302.744 232 302.744 C 232.987 302.744 233.777 302.457 234.37 301.884 C 234.957 301.317 235.25 300.407 235.25 299.154 L 235.25 296.944 C 234.784 297.671 234.14 298.264 233.32 298.724 C 232.494 299.177 231.53 299.404 230.43 299.404 C 229.144 299.404 227.977 299.074 226.93 298.414 C 225.884 297.754 225.057 296.811 224.45 295.584 C 223.844 294.364 223.54 292.951 223.54 291.344 C 223.54 289.737 223.844 288.327 224.45 287.114 C 225.057 285.901 225.884 284.967 226.93 284.314 C 227.977 283.661 229.144 283.334 230.43 283.334 Z M 235.25 291.374 C 235.25 290.181 234.917 289.237 234.25 288.544 C 233.59 287.851 232.784 287.504 231.83 287.504 C 230.877 287.504 230.07 287.847 229.41 288.534 C 228.75 289.214 228.42 290.151 228.42 291.344 C 228.42 292.537 228.75 293.484 229.41 294.184 C 230.07 294.884 230.877 295.234 231.83 295.234 C 232.784 295.234 233.59 294.891 234.25 294.204 C 234.917 293.511 235.25 292.567 235.25 291.374 Z M 258.226 291.124 C 258.226 291.571 258.2 292.037 258.146 292.524 L 247.306 292.524 C 247.386 293.491 247.7 294.231 248.246 294.744 C 248.8 295.257 249.476 295.514 250.276 295.514 C 251.47 295.514 252.3 295.011 252.766 294.004 L 257.866 294.004 C 257.606 295.031 257.136 295.954 256.456 296.774 C 255.77 297.594 254.913 298.237 253.886 298.704 C 252.86 299.171 251.713 299.404 250.446 299.404 C 248.913 299.404 247.55 299.077 246.356 298.424 C 245.163 297.771 244.23 296.837 243.556 295.624 C 242.883 294.411 242.546 292.994 242.546 291.374 C 242.546 289.747 242.88 288.327 243.546 287.114 C 244.206 285.901 245.133 284.967 246.326 284.314 C 247.526 283.661 248.9 283.334 250.446 283.334 C 251.96 283.334 253.303 283.651 254.476 284.284 C 255.656 284.924 256.576 285.831 257.236 287.004 C 257.896 288.177 258.226 289.551 258.226 291.124 Z M 247.336 289.864 L 253.326 289.864 C 253.326 289.037 253.046 288.384 252.486 287.904 C 251.926 287.417 251.226 287.174 250.386 287.174 C 249.586 287.174 248.91 287.407 248.356 287.874 C 247.81 288.341 247.47 289.004 247.336 289.864 Z" style="fill: #b5b5b5;"/>
</svg>
