<?xml version="1.0" encoding="utf-8"?>
<svg viewBox="0 0 600 600" xmlns="http://www.w3.org/2000/svg">
  <g id="layer1" transform="matrix(3.441706, 0, 0, 3.441706, -712.926758, -1377.932983)">
    <path d="M 294.378 413.185 C 314.632 413.386 332.171 420.696 346.996 435.118 C 361.126 449.711 368.309 467.211 368.546 487.617 C 368.275 504.485 363.246 519.35 353.461 532.214 L 352.426 531.143 L 352.391 530.391 C 352.234 527.627 348.382 512.505 348.252 511.68 C 348.12 510.918 347.947 508.658 347.902 507.367 C 347.884 506.729 347.85 505.993 347.835 505.729 C 347.812 505.462 347.787 504.718 347.769 504.09 C 347.742 503.453 347.716 502.761 347.701 502.54 C 347.677 502.319 347.635 501.486 347.593 500.68 C 347.551 499.874 347.462 498.643 347.382 497.934 C 347.202 496.189 347.236 495.64 347.62 494.044 C 348.089 492.121 348.155 491.741 348.168 490.777 C 348.189 489.193 347.694 487.824 346.281 485.619 C 344.452 482.744 342.482 479.188 342.488 478.763 C 342.49 478.515 342.122 477.626 341.159 475.551 C 340.574 474.304 340.067 473.165 340.042 473.031 C 339.972 472.735 339.869 472.674 339.275 472.666 C 339.229 472.666 339.178 472.665 339.127 472.665 C 338.64 472.668 337.946 472.844 334.953 473.734 C 332.981 474.317 331.321 474.799 331.267 474.799 C 331.178 474.798 330.248 473.573 330.188 473.369 C 330.172 473.329 330.206 473.308 330.276 473.308 C 330.278 473.308 330.28 473.308 330.281 473.308 C 330.321 473.309 330.37 473.315 330.428 473.328 C 330.486 473.339 330.542 473.345 330.587 473.346 C 330.59 473.346 330.593 473.346 330.595 473.346 C 330.66 473.346 330.701 473.335 330.701 473.314 C 330.702 473.27 330.62 472.825 330.53 472.312 C 330.289 471.061 330.32 469.45 330.595 468.118 C 330.803 467.121 331.356 465.429 332.161 463.369 C 333.088 460.956 333.582 459.008 333.742 457.106 C 333.856 455.851 333.779 454.195 333.588 453.308 C 333.43 452.599 332.877 450.928 332.483 449.966 C 332.311 449.556 332.174 449.209 332.175 449.192 C 332.175 449.174 332.282 449.14 332.423 449.124 C 332.557 449.104 332.604 449.096 332.549 449.096 L 332.547 449.095 C 332.544 449.095 332.54 449.095 332.537 449.095 C 332.508 449.095 332.458 449.097 332.388 449.098 C 332.369 449.099 332.351 449.1 332.334 449.1 C 332.331 449.1 332.328 449.1 332.325 449.1 C 332.118 449.097 332.034 448.988 331.646 448.344 C 331.117 447.461 330.048 446.004 329.664 445.627 C 329.516 445.475 329.395 445.323 329.395 445.279 C 329.396 445.253 329.533 445.233 329.73 445.233 C 329.744 445.233 329.758 445.234 329.772 445.234 C 329.834 445.235 329.901 445.237 329.971 445.242 C 330.083 445.25 330.189 445.254 330.276 445.255 C 330.293 445.256 330.31 445.256 330.326 445.256 C 330.459 445.256 330.546 445.247 330.546 445.232 C 330.547 445.145 329.115 443.718 328.851 443.528 C 328.729 443.453 328.605 443.403 328.541 443.402 L 328.54 443.402 C 328.527 443.402 328.516 443.404 328.509 443.408 C 328.492 443.416 328.48 443.42 328.472 443.42 C 328.454 443.42 328.458 443.4 328.483 443.364 C 328.546 443.259 327.686 442.698 327.123 442.478 C 326.912 442.396 326.391 442.292 325.957 442.242 C 325.533 442.201 325.1 442.106 324.987 442.053 C 324.881 441.988 324.444 441.593 324.008 441.163 C 323.073 440.239 322.548 439.833 321.388 439.101 C 320.3 438.423 318.866 437.784 317.747 437.486 C 317.07 437.311 316.108 437.196 315.343 437.186 C 315.307 437.186 315.271 437.185 315.235 437.185 C 314.985 437.185 314.762 437.197 314.582 437.223 C 314.13 437.296 313.366 437.578 313.275 437.71 C 313.247 437.754 313.814 437.796 314.521 437.806 C 315.751 437.831 315.867 437.842 316.677 438.127 C 317.469 438.403 317.716 438.548 317.598 438.652 C 317.594 438.657 317.576 438.659 317.547 438.659 C 317.544 438.659 317.541 438.659 317.538 438.659 C 317.393 438.657 317.017 438.61 316.591 438.533 C 315.958 438.418 314.996 438.356 313.934 438.342 C 313.776 438.34 313.614 438.339 313.45 438.339 C 311.626 438.339 309.619 438.471 308.518 438.708 C 308.2 438.775 307.266 439.045 306.439 439.3 C 305.213 439.69 304.821 439.853 304.188 440.261 L 303.42 440.755 L 303.872 440.787 C 303.904 440.79 303.935 440.791 303.968 440.791 C 303.976 440.792 303.984 440.792 303.992 440.792 C 304.287 440.792 304.616 440.721 305.132 440.557 C 305.694 440.369 306.611 440.222 307.018 440.222 C 307.025 440.222 307.032 440.222 307.039 440.222 C 307.19 440.224 307.262 440.248 307.206 440.301 C 307.161 440.345 306.715 440.525 306.226 440.704 C 304.874 441.199 303.653 441.9 302.686 442.727 C 302.184 443.163 300.935 444.589 300.791 444.897 C 300.735 445.02 300.529 445.194 300.333 445.289 C 298.961 445.952 297.364 447.622 297.004 448.74 C 296.948 448.925 296.975 448.943 297.293 448.947 L 297.629 448.952 L 296.975 450.217 C 296.185 451.756 295.9 452.522 295.909 453.176 C 295.915 453.763 296.111 454.363 296.242 454.365 L 296.243 454.365 C 296.283 454.365 296.318 454.307 296.338 454.173 C 296.357 454.069 296.43 453.981 296.499 453.981 L 296.5 453.981 C 296.606 453.982 296.62 454.372 296.582 456.477 C 296.564 457.858 296.509 459.274 296.469 459.618 C 296.399 460.246 296.408 460.264 296.602 460.266 C 296.605 460.266 296.607 460.266 296.61 460.266 C 296.763 460.266 296.807 460.2 296.864 459.871 C 296.894 459.651 296.958 459.448 297.003 459.422 C 297.027 459.408 297.049 459.402 297.063 459.402 L 297.064 459.402 C 297.076 459.402 297.083 459.406 297.083 459.414 C 297.082 459.432 297.123 459.68 297.172 459.972 C 297.222 460.257 297.31 460.974 297.355 461.558 L 297.448 462.621 L 297.569 462.12 C 297.634 461.845 297.685 461.343 297.689 461.014 C 297.699 460.311 297.745 460.106 297.92 460.106 C 297.921 460.106 297.922 460.106 297.923 460.106 C 297.923 460.106 297.923 460.106 297.924 460.106 C 298.02 460.106 298.049 459.91 298.061 459.056 C 298.07 458.445 298.111 457.977 298.164 457.941 C 298.173 457.937 298.182 457.934 298.19 457.934 C 298.229 457.935 298.252 457.985 298.251 458.057 C 298.25 458.154 298.367 458.644 298.512 459.149 C 299.035 460.979 299.315 463.319 299.141 464.334 C 298.997 465.164 298.577 466.15 298.026 466.957 C 296.934 468.545 296.952 468.518 297.001 468.872 C 297.025 469.058 297.092 469.307 297.143 469.441 C 297.272 469.735 298.125 470.18 298.769 470.294 C 299.75 470.467 299.913 470.788 299.53 471.729 C 299.364 472.151 299.298 472.416 299.341 472.593 C 299.398 472.887 299.757 473.299 300.055 473.417 C 300.231 473.482 300.239 473.527 300.167 473.72 C 300.038 474.036 300.035 474.94 300.164 475.225 C 300.232 475.376 300.373 475.483 300.619 475.558 C 301.184 475.724 301.253 475.841 301.345 476.851 C 301.484 478.419 302.039 479.312 303.07 479.643 C 303.321 479.725 303.549 479.774 303.799 479.777 C 303.809 479.777 303.818 479.777 303.827 479.777 C 304.51 479.777 305.362 479.444 307.287 478.55 C 309.509 477.52 311.222 476.955 312.101 476.955 C 312.11 476.955 312.118 476.955 312.128 476.955 C 312.2 476.956 312.265 476.961 312.327 476.971 C 313.35 477.125 314.375 477.875 316.243 479.845 C 317.456 481.119 319.667 483.954 320.064 484.729 L 320.201 485.004 L 319.05 484.99 L 318.424 486.238 C 317.695 487.705 316.808 489.234 316.304 489.9 C 315.719 490.653 315.173 491.734 314.913 492.634 C 314.459 494.203 314.005 495.09 312.96 496.457 C 311.635 498.183 310.65 499.762 309.506 501.987 C 307.78 505.318 306.6 506.894 302.821 510.88 C 302.046 511.697 301.325 512.403 300.655 513.005 C 299.032 512.713 297.11 512.572 293.598 512.465 C 293.154 512.452 292.685 512.439 292.188 512.426 L 284.834 512.24 L 284.097 511.268 C 283.633 510.658 282.847 510.28 282.208 510.261 C 282.199 510.261 282.189 510.261 282.179 510.261 C 282.172 510.26 282.165 510.26 282.157 510.26 C 282.142 510.26 282.127 510.261 282.113 510.261 C 281.778 510.27 281.492 510.385 281.33 510.627 C 281.185 510.851 281.034 510.97 280.864 510.975 C 280.86 510.975 280.856 510.975 280.852 510.975 C 280.851 510.975 280.85 510.975 280.848 510.975 C 280.846 510.975 280.844 510.975 280.842 510.975 C 280.504 510.965 280.088 510.513 279.49 509.551 C 278.645 508.271 278.612 508.042 279.161 507.484 C 279.384 507.239 279.461 506.969 279.224 506.215 L 279.223 506.215 L 286.196 498.107 L 267.678 468.037 L 267.67 468.025 L 251.016 481.61 L 243.28 493.699 L 265.708 521.933 L 270.666 516.167 L 270.667 516.167 C 271.586 516.304 272.656 516.393 273.94 516.464 C 278.43 516.73 278.468 516.768 279.507 517.901 C 280.178 518.662 280.521 518.937 281.139 518.956 C 281.151 518.956 281.164 518.957 281.177 518.957 C 281.188 518.957 281.199 518.957 281.21 518.957 C 281.234 518.957 281.258 518.957 281.282 518.956 C 281.485 518.951 281.717 518.923 281.998 518.878 C 282.111 518.865 282.226 518.856 282.345 518.853 C 282.384 518.852 282.421 518.851 282.46 518.851 C 282.479 518.851 282.498 518.852 282.518 518.852 C 282.542 518.852 282.567 518.853 282.593 518.853 C 283.587 518.884 284.938 519.253 287.493 520.2 C 288.324 520.504 289.096 520.814 289.738 521.092 L 289.736 521.092 C 289.618 522.012 289.796 523.253 290.241 524.48 C 290.36 524.819 290.988 526.181 291.643 527.518 C 292.581 529.458 292.796 529.967 292.706 530.053 C 292.613 530.144 292.266 530.191 291.916 530.191 C 291.899 530.191 291.882 530.191 291.864 530.191 C 291.558 530.187 291.259 530.147 291.14 530.067 C 291.054 530.009 291.001 529.969 290.97 529.874 L 290.969 529.874 L 247.857 529.678 C 247.894 529.801 247.912 529.882 247.912 529.916 C 247.909 530.102 247.671 530.125 245.342 530.191 C 243.671 530.235 242.289 530.26 240.195 530.26 C 238.593 530.26 236.573 530.246 233.688 530.214 C 224.801 517.709 220.263 503.385 220.073 487.239 C 220.397 466.839 227.681 449.365 241.923 434.818 C 256.538 420.651 274.012 413.441 294.348 413.185 Z M 294.255 561.658 C 274.001 561.462 256.461 554.154 241.633 539.735 C 240.702 538.774 239.802 537.801 238.931 536.815 L 242.049 536.917 C 243.782 536.976 248.754 537.103 253.081 537.206 C 257.415 537.317 262.032 537.432 263.341 537.476 C 270.718 537.699 284.769 537.966 294.67 538.098 C 298.557 538.15 301.806 538.181 303.759 538.181 C 304.89 538.181 305.586 538.171 305.723 538.148 C 305.872 538.122 306.448 538.087 307.007 538.059 C 307.564 538.04 308.183 538.012 308.378 537.989 C 308.573 537.973 308.99 537.944 309.309 537.911 C 310.506 537.813 313.467 537.322 315.765 536.831 C 316.023 536.772 316.105 536.623 316.228 535.97 C 316.371 535.209 316.708 531.258 316.637 531.196 C 316.593 531.151 313.675 531.024 310.862 530.942 C 306.175 530.8 304.989 530.677 304.861 530.331 C 304.802 530.154 305.321 529.588 305.543 529.588 C 305.544 529.588 305.544 529.588 305.545 529.588 C 305.547 529.588 305.548 529.588 305.55 529.588 C 306.111 529.588 307.652 528.47 309.109 527.016 C 311.002 525.111 311.503 524.101 311.646 521.882 C 311.74 520.563 311.837 520.041 312.018 520.041 L 312.02 520.041 C 312.03 520.042 312.041 520.043 312.051 520.047 C 319.509 509.637 322.332 537.707 323.33 541.647 C 323.647 542.902 324.965 548.26 327.334 549.993 C 327.767 550.311 327.932 550.931 327.981 551.108 C 328.023 551.286 328.195 551.66 328.361 551.928 C 328.642 552.39 328.848 552.74 329.009 553.049 C 318.54 558.632 306.955 561.501 294.255 561.658 Z M 247.857 529.678 C 247.857 529.678 247.857 529.678 247.857 529.678 L 247.856 529.678 Z M 307.203 440.08 C 307.219 440.08 307.235 440.08 307.252 440.08 C 307.473 440.083 307.561 440.102 307.455 440.119 C 307.404 440.126 307.34 440.129 307.276 440.129 C 307.268 440.129 307.26 440.129 307.252 440.129 C 307.181 440.128 307.11 440.123 307.057 440.113 C 306.951 440.096 307.018 440.08 307.203 440.08 Z M 327.955 443.366 C 327.97 443.366 327.986 443.366 328.004 443.366 C 328.225 443.369 328.314 443.388 328.207 443.404 C 328.156 443.412 328.093 443.415 328.028 443.415 C 328.02 443.415 328.012 443.415 328.004 443.415 C 327.933 443.414 327.863 443.409 327.809 443.399 C 327.704 443.381 327.77 443.366 327.955 443.366 Z" style="isolation: isolate; fill-opacity: 1; stroke-linejoin: miter;"/>
  </g>
</svg>